#!OML:ASF E:\motion texture\Top Level 1\Subject 1\Session 1\male.ASF
:FULLY-SPECIFIED
:DEGREES
319
root 9.38242 18.0039 7.09426 126.845 -79.631 -120.005
lowerback 0.446714 6.03005 10.3017
upperback -1.594 8.03172 4.80899
thorax -1.19863 3.81346 -0.767089
lowerneck -17.3181 -5.80304 -7.66546
upperneck 14.8629 -6.72221 3.93684
head 7.83025 -3.27131 1.74002
rclavicle 5.59082e-014 1.74931e-014
rhumerus -55.7557 -50.0168 -36.265
rradius 15.026
rwrist 41.8242
rhand -15.6795 -37.1526
rfingers 7.12502
rthumb 10.5093 -426.87
lclavicle 5.59082e-014 1.74931e-014
lhumerus -76.187 39.6913 26.2586
lradius 12.5159
lwrist -61.3728
lhand -3.92344 20.0741
lfingers 7.12502
lthumb 21.8275 48.8631
rfemur -3.86531 -2.20664 32.9831
rtibia 24.632
rfoot -11.0253 -11.8798
rtoes -2.49724
lfemur -26.412 -0.639854 -8.79666
ltibia 18.4228
lfoot -5.0502 7.79675
ltoes -10.6643
320
root 9.24196 17.992 7.08891 128.004 -79.5454 -121.14
lowerback 0.405787 5.95775 10.1522
upperback -1.57074 7.93179 4.70078
thorax -1.16381 3.77071 -0.795526
lowerneck -17.3697 -5.70009 -7.57173
upperneck 14.8937 -6.6191 4.02715
head 7.84294 -3.20773 1.7671
rclavicle -2.39536e-014 7.95139e-015
rhumerus -57.8244 -49.7681 -33.675
rradius 15.1027
rwrist 41.9812
rhand -15.812 -37.3427
rfingers 7.12502
rthumb 10.3815 -427.066
lclavicle -2.39536e-014 7.95139e-015
lhumerus -76.6586 39.9088 25.7159
lradius 12.3993
lwrist -61.8777
lhand -3.80628 19.76
lfingers 7.12502
lthumb 21.94 48.5358
rfemur -3.94977 -2.33219 32.7854
rtibia 25.5113
rfoot -10.8352 -11.634
rtoes -3.13162
lfemur -26.1943 -0.774582 -8.91029
ltibia 17.8822
lfoot -4.82477 7.90781
ltoes -10.0738
321
root 9.10167 17.9802 7.08381 129.145 -79.4761 -122.27
lowerback 0.37395 5.87685 9.99163
upperback -1.54698 7.82211 4.58788
thorax -1.13511 3.72309 -0.82403
lowerneck -17.4174 -5.59294 -7.46945
upperneck 14.9289 -6.51241 4.11309
head 7.85575 -3.14248 1.79193
rclavicle -5.38209e-014 5.00937e-014
rhumerus -59.6198 -49.3891 -31.3814
rradius 15.2029
rwrist 41.9778
rhand -15.9311 -37.5357
rfingers 7.12502
rthumb 10.2666 -427.265
lclavicle -5.38209e-014 5.00937e-014
lhumerus -76.9689 40.1204 25.3602
lradius 12.3076
lwrist -62.2839
lhand -3.72496 19.4736
lfingers 7.12502
lthumb 22.0181 48.2403
rfemur -4.08314 -2.46958 32.5584
rtibia 26.4693
rfoot -10.5847 -11.4044
rtoes -3.7238
lfemur -25.9596 -0.894968 -9.05219
ltibia 17.4253
lfoot -4.59758 7.98836
ltoes -9.44401
322
root 8.96164 17.9686 7.0789 130.283 -79.4226 -123.409
lowerback 0.351867 5.78711 9.81837
upperback -1.52189 7.70228 4.471
thorax -1.1123 3.67044 -0.851022
lowerneck -17.4662 -5.48113 -7.36159
upperneck 14.9713 -6.40078 4.19642
head 7.87057 -3.07481 1.81561
rclavicle 7.95139e-016 7.95139e-016
rhumerus -61.1452 -48.9114 -29.3789
rradius 15.3203
rwrist 41.8322
rhand -16.0461 -37.7259
rfingers 7.12502
rthumb 10.1557 -427.461
lclavicle 7.95139e-016 7.95139e-016
lhumerus -77.1317 40.3376 25.1674
lradius 12.2373
lwrist -62.6111
lhand -3.68264 19.2087
lfingers 7.12502
lthumb 22.0587 47.9706
rfemur -4.26684 -2.61628 32.3022
rtibia 27.5054
rfoot -10.2793 -11.1896
rtoes -4.27609
lfemur -25.7071 -0.997918 -9.22322
ltibia 17.0478
lfoot -4.3738 8.03805
ltoes -8.77274
323
root 8.82196 17.9573 7.07414 131.421 -79.3844 -124.56
lowerback 0.337813 5.68978 9.63158
upperback -1.49519 7.57359 4.35111
thorax -1.09419 3.61344 -0.874707
lowerneck -17.5138 -5.36611 -7.24865
upperneck 15.0197 -6.28589 4.27538
head 7.88672 -3.00575 1.83746
rclavicle 1.32689e-014 1.04163e-013
rhumerus -62.4351 -48.3723 -27.6252
rradius 15.4486
rwrist 41.5768
rhand -16.1596 -37.9122
rfingers 7.12502
rthumb 10.0462 -427.652
lclavicle 1.32689e-014 1.04163e-013
lhumerus -77.1401 40.5604 25.1438
lradius 12.1867
lwrist -62.8548
lhand -3.67917 18.9736
lfingers 7.12502
lthumb 22.062 47.7352
rfemur -4.50274 -2.77113 32.0187
rtibia 28.6176
rfoot -9.91997 -10.9941
rtoes -4.78715
lfemur -25.4373 -1.08206 -9.42279
ltibia 16.7452
lfoot -4.15656 8.05671
ltoes -8.06428
